# xmcd
#
# Track frame offsets: 
#        150
#        13094
#        23178
#        35557
#        46821
#        66602
#        83261
#        96750
#        108741
#        123407
#        137330
#        152853
#
# Disc length: 2236 seconds
#
# Revision: 0
# Processed by: cddbd v1.5.2PL0 Copyright (c) Steve Scherf et al.
# Submitted via: ExactAudioCopy v0.99pb4
#
DISCID=9808ba0c
DTITLE=Power-Pack - Soul Cure
DYEAR=1969
DGENRE=Soundtrack
TTITLE0=Soul Searchin'
TTITLE1=Upright (Everything's Alright)
TTITLE2=Son Of A Preacher Man
TTITLE3=Hang On Sloopy
TTITLE4=You've Lost That Lovin' Feelin'
TTITLE5=I Got You (I Feel Good)
TTITLE6=She's A Woman
TTITLE7=Got To Get You Into My Life
TTITLE8=Soul Man
TTITLE9=Hit The Road Jack
TTITLE10=Watermelon Man
TTITLE11=(I Can't Get No) Satisfaction
EXTD=
EXTT0=
EXTT1=
EXTT2=
EXTT3=
EXTT4=
EXTT5=
EXTT6=
EXTT7=
EXTT8=
EXTT9=
EXTT10=
EXTT11=
PLAYORDER=
